<svg width="234" height="21" viewBox="0 0 234 21" fill="none" xmlns="http://www.w3.org/2000/svg">
<path d="M0.9 16L7.2 2H9.76L16.08 16H13.36L7.94 3.38H8.98L3.58 16H0.9ZM3.8 12.76L4.5 10.72H12.06L12.76 12.76H3.8ZM17.6205 16V5.32H20.0005V8.26L19.7205 7.4C20.0405 6.68 20.5405 6.13333 21.2205 5.76C21.9138 5.38667 22.7738 5.2 23.8005 5.2V7.58C23.6938 7.55333 23.5938 7.54 23.5005 7.54C23.4071 7.52667 23.3138 7.52 23.2205 7.52C22.2738 7.52 21.5205 7.8 20.9605 8.36C20.4005 8.90667 20.1205 9.72667 20.1205 10.82V16H17.6205ZM31.7395 16V13.84L31.5995 13.38V9.6C31.5995 8.86667 31.3795 8.3 30.9395 7.9C30.4995 7.48667 29.8329 7.28 28.9395 7.28C28.3395 7.28 27.7462 7.37333 27.1595 7.56C26.5862 7.74667 26.0995 8.00667 25.6995 8.34L24.7195 6.52C25.2929 6.08 25.9729 5.75333 26.7595 5.54C27.5595 5.31333 28.3862 5.2 29.2395 5.2C30.7862 5.2 31.9795 5.57333 32.8195 6.32C33.6729 7.05333 34.0995 8.19333 34.0995 9.74V16H31.7395ZM28.3795 16.14C27.5795 16.14 26.8795 16.0067 26.2795 15.74C25.6795 15.46 25.2129 15.08 24.8795 14.6C24.5595 14.1067 24.3995 13.5533 24.3995 12.94C24.3995 12.34 24.5395 11.8 24.8195 11.32C25.1129 10.84 25.5862 10.46 26.2395 10.18C26.8929 9.9 27.7595 9.76 28.8395 9.76H31.9395V11.42H29.0195C28.1662 11.42 27.5929 11.56 27.2995 11.84C27.0062 12.1067 26.8595 12.44 26.8595 12.84C26.8595 13.2933 27.0395 13.6533 27.3995 13.92C27.7595 14.1867 28.2595 14.32 28.8995 14.32C29.5129 14.32 30.0595 14.18 30.5395 13.9C31.0329 13.62 31.3862 13.2067 31.5995 12.66L32.0195 14.16C31.7795 14.7867 31.3462 15.2733 30.7195 15.62C30.1062 15.9667 29.3262 16.14 28.3795 16.14ZM40.608 16.14C39.7146 16.14 38.8546 16.0267 38.028 15.8C37.2146 15.56 36.568 15.2733 36.088 14.94L37.048 13.04C37.528 13.3467 38.1013 13.6 38.768 13.8C39.4346 14 40.1013 14.1 40.768 14.1C41.5546 14.1 42.1213 13.9933 42.468 13.78C42.828 13.5667 43.008 13.28 43.008 12.92C43.008 12.6267 42.888 12.4067 42.648 12.26C42.408 12.1 42.0946 11.98 41.708 11.9C41.3213 11.82 40.888 11.7467 40.408 11.68C39.9413 11.6133 39.468 11.5267 38.988 11.42C38.5213 11.3 38.0946 11.1333 37.708 10.92C37.3213 10.6933 37.008 10.3933 36.768 10.02C36.528 9.64667 36.408 9.15333 36.408 8.54C36.408 7.86 36.6013 7.27333 36.988 6.78C37.3746 6.27333 37.9146 5.88667 38.608 5.62C39.3146 5.34 40.148 5.2 41.108 5.2C41.828 5.2 42.5546 5.28 43.288 5.44C44.0213 5.6 44.628 5.82667 45.108 6.12L44.148 8.02C43.6413 7.71333 43.128 7.50667 42.608 7.4C42.1013 7.28 41.5946 7.22 41.088 7.22C40.328 7.22 39.7613 7.33333 39.388 7.56C39.028 7.78667 38.848 8.07333 38.848 8.42C38.848 8.74 38.968 8.98 39.208 9.14C39.448 9.3 39.7613 9.42667 40.148 9.52C40.5346 9.61333 40.9613 9.69333 41.428 9.76C41.908 9.81333 42.3813 9.9 42.848 10.02C43.3146 10.14 43.7413 10.3067 44.128 10.52C44.528 10.72 44.848 11.0067 45.088 11.38C45.328 11.7533 45.448 12.24 45.448 12.84C45.448 13.5067 45.248 14.0867 44.848 14.58C44.4613 15.0733 43.908 15.46 43.188 15.74C42.468 16.0067 41.608 16.14 40.608 16.14ZM50.9009 16.14C50.0076 16.14 49.1476 16.0267 48.3209 15.8C47.5076 15.56 46.8609 15.2733 46.3809 14.94L47.3409 13.04C47.8209 13.3467 48.3943 13.6 49.0609 13.8C49.7276 14 50.3943 14.1 51.0609 14.1C51.8476 14.1 52.4143 13.9933 52.7609 13.78C53.1209 13.5667 53.3009 13.28 53.3009 12.92C53.3009 12.6267 53.1809 12.4067 52.9409 12.26C52.7009 12.1 52.3876 11.98 52.0009 11.9C51.6143 11.82 51.1809 11.7467 50.7009 11.68C50.2343 11.6133 49.7609 11.5267 49.2809 11.42C48.8143 11.3 48.3876 11.1333 48.0009 10.92C47.6143 10.6933 47.3009 10.3933 47.0609 10.02C46.8209 9.64667 46.7009 9.15333 46.7009 8.54C46.7009 7.86 46.8943 7.27333 47.2809 6.78C47.6676 6.27333 48.2076 5.88667 48.9009 5.62C49.6076 5.34 50.4409 5.2 51.4009 5.2C52.1209 5.2 52.8476 5.28 53.5809 5.44C54.3143 5.6 54.9209 5.82667 55.4009 6.12L54.4409 8.02C53.9343 7.71333 53.4209 7.50667 52.9009 7.4C52.3943 7.28 51.8876 7.22 51.3809 7.22C50.6209 7.22 50.0543 7.33333 49.6809 7.56C49.3209 7.78667 49.1409 8.07333 49.1409 8.42C49.1409 8.74 49.2609 8.98 49.5009 9.14C49.7409 9.3 50.0543 9.42667 50.4409 9.52C50.8276 9.61333 51.2543 9.69333 51.7209 9.76C52.2009 9.81333 52.6743 9.9 53.1409 10.02C53.6076 10.14 54.0343 10.3067 54.4209 10.52C54.8209 10.72 55.1409 11.0067 55.3809 11.38C55.6209 11.7533 55.7409 12.24 55.7409 12.84C55.7409 13.5067 55.5409 14.0867 55.1409 14.58C54.7543 15.0733 54.2009 15.46 53.4809 15.74C52.7609 16.0067 51.9009 16.14 50.9009 16.14ZM64.4739 16V13.84L64.3339 13.38V9.6C64.3339 8.86667 64.1139 8.3 63.6739 7.9C63.2339 7.48667 62.5672 7.28 61.6739 7.28C61.0739 7.28 60.4806 7.37333 59.8939 7.56C59.3206 7.74667 58.8339 8.00667 58.4339 8.34L57.4539 6.52C58.0272 6.08 58.7072 5.75333 59.4939 5.54C60.2939 5.31333 61.1206 5.2 61.9739 5.2C63.5206 5.2 64.7139 5.57333 65.5539 6.32C66.4072 7.05333 66.8339 8.19333 66.8339 9.74V16H64.4739ZM61.1139 16.14C60.3139 16.14 59.6139 16.0067 59.0139 15.74C58.4139 15.46 57.9472 15.08 57.6139 14.6C57.2939 14.1067 57.1339 13.5533 57.1339 12.94C57.1339 12.34 57.2739 11.8 57.5539 11.32C57.8472 10.84 58.3206 10.46 58.9739 10.18C59.6272 9.9 60.4939 9.76 61.5739 9.76H64.6739V11.42H61.7539C60.9006 11.42 60.3272 11.56 60.0339 11.84C59.7406 12.1067 59.5939 12.44 59.5939 12.84C59.5939 13.2933 59.7739 13.6533 60.1339 13.92C60.4939 14.1867 60.9939 14.32 61.6339 14.32C62.2472 14.32 62.7939 14.18 63.2739 13.9C63.7672 13.62 64.1206 13.2067 64.3339 12.66L64.7539 14.16C64.5139 14.7867 64.0806 15.2733 63.4539 15.62C62.8406 15.9667 62.0606 16.14 61.1139 16.14ZM74.9619 16.14C73.8419 16.14 72.8419 15.9067 71.9619 15.44C71.0952 14.96 70.4152 14.3067 69.9219 13.48C69.4285 12.6533 69.1819 11.7133 69.1819 10.66C69.1819 9.59333 69.4285 8.65333 69.9219 7.84C70.4152 7.01333 71.0952 6.36667 71.9619 5.9C72.8419 5.43333 73.8419 5.2 74.9619 5.2C76.0019 5.2 76.9152 5.41333 77.7019 5.84C78.5019 6.25333 79.1085 6.86667 79.5219 7.68L77.6019 8.8C77.2819 8.29333 76.8885 7.92 76.4219 7.68C75.9685 7.44 75.4752 7.32 74.9419 7.32C74.3285 7.32 73.7752 7.45333 73.2819 7.72C72.7885 7.98667 72.4019 8.37333 72.1219 8.88C71.8419 9.37333 71.7019 9.96667 71.7019 10.66C71.7019 11.3533 71.8419 11.9533 72.1219 12.46C72.4019 12.9533 72.7885 13.3333 73.2819 13.6C73.7752 13.8667 74.3285 14 74.9419 14C75.4752 14 75.9685 13.88 76.4219 13.64C76.8885 13.4 77.2819 13.0267 77.6019 12.52L79.5219 13.64C79.1085 14.44 78.5019 15.06 77.7019 15.5C76.9152 15.9267 76.0019 16.14 74.9619 16.14ZM73.9219 20.56C73.5619 20.56 73.2285 20.52 72.9219 20.44C72.6152 20.3733 72.3352 20.2733 72.0819 20.14L72.5419 18.96C72.7552 19.0667 72.9685 19.1467 73.1819 19.2C73.4085 19.2533 73.6485 19.28 73.9019 19.28C74.2885 19.28 74.5619 19.2133 74.7219 19.08C74.8819 18.9467 74.9619 18.7733 74.9619 18.56C74.9619 18.36 74.8752 18.2 74.7019 18.08C74.5419 17.96 74.2752 17.9 73.9019 17.9H73.2819L73.8219 15.86H75.1819L74.9019 16.98C75.4885 17.0467 75.9219 17.2333 76.2019 17.54C76.4952 17.86 76.6419 18.2333 76.6419 18.66C76.6419 19.2467 76.3952 19.7067 75.9019 20.04C75.4085 20.3867 74.7485 20.56 73.9219 20.56ZM82.4263 20.02C81.9063 20.02 81.3863 19.9333 80.8663 19.76C80.3463 19.5867 79.9129 19.3467 79.5662 19.04L80.5662 17.2C80.8196 17.4267 81.1063 17.6067 81.4263 17.74C81.7463 17.8733 82.0729 17.94 82.4062 17.94C82.8596 17.94 83.2263 17.8267 83.5063 17.6C83.7863 17.3733 84.0463 16.9933 84.2863 16.46L84.9062 15.06L85.1063 14.76L89.1463 5.32H91.5463L86.5463 16.86C86.2129 17.66 85.8396 18.2933 85.4263 18.76C85.0263 19.2267 84.5729 19.5533 84.0663 19.74C83.5729 19.9267 83.0263 20.02 82.4263 20.02ZM84.6263 16.38L79.8062 5.32H82.4062L86.3263 14.54L84.6263 16.38ZM93.1088 16V1.16H95.6088V16H93.1088ZM99.77 20.02C99.25 20.02 98.73 19.9333 98.21 19.76C97.69 19.5867 97.2567 19.3467 96.91 19.04L97.91 17.2C98.1633 17.4267 98.45 17.6067 98.77 17.74C99.09 17.8733 99.4167 17.94 99.75 17.94C100.203 17.94 100.57 17.8267 100.85 17.6C101.13 17.3733 101.39 16.9933 101.63 16.46L102.25 15.06L102.45 14.76L106.49 5.32H108.89L103.89 16.86C103.557 17.66 103.183 18.2933 102.77 18.76C102.37 19.2267 101.917 19.5533 101.41 19.74C100.917 19.9267 100.37 20.02 99.77 20.02ZM101.97 16.38L97.15 5.32H99.75L103.67 14.54L101.97 16.38ZM112.493 13.62L112.553 10.48L118.133 5.32H121.133L116.393 10.08L115.073 11.18L112.493 13.62ZM110.453 16V1.16H112.953V16H110.453ZM118.513 16L114.613 11.18L116.193 9.18L121.553 16H118.513ZM133.275 16.2C132.181 16.2 131.135 16.0467 130.135 15.74C129.135 15.42 128.341 15.0133 127.755 14.52L128.655 12.5C129.215 12.94 129.908 13.3067 130.735 13.6C131.561 13.8933 132.408 14.04 133.275 14.04C134.008 14.04 134.601 13.96 135.055 13.8C135.508 13.64 135.841 13.4267 136.055 13.16C136.268 12.88 136.375 12.5667 136.375 12.22C136.375 11.7933 136.221 11.4533 135.915 11.2C135.608 10.9333 135.208 10.7267 134.715 10.58C134.235 10.42 133.695 10.2733 133.095 10.14C132.508 10.0067 131.915 9.85333 131.315 9.68C130.728 9.49333 130.188 9.26 129.695 8.98C129.215 8.68667 128.821 8.3 128.515 7.82C128.208 7.34 128.055 6.72667 128.055 5.98C128.055 5.22 128.255 4.52667 128.655 3.9C129.068 3.26 129.688 2.75333 130.515 2.38C131.355 1.99333 132.415 1.8 133.695 1.8C134.535 1.8 135.368 1.90667 136.195 2.12C137.021 2.33333 137.741 2.64 138.355 3.04L137.535 5.06C136.908 4.68667 136.261 4.41333 135.595 4.24C134.928 4.05333 134.288 3.96 133.675 3.96C132.955 3.96 132.368 4.04667 131.915 4.22C131.475 4.39333 131.148 4.62 130.935 4.9C130.735 5.18 130.635 5.5 130.635 5.86C130.635 6.28667 130.781 6.63333 131.075 6.9C131.381 7.15333 131.775 7.35333 132.255 7.5C132.748 7.64667 133.295 7.79333 133.895 7.94C134.495 8.07333 135.088 8.22667 135.675 8.4C136.275 8.57333 136.815 8.8 137.295 9.08C137.788 9.36 138.181 9.74 138.475 10.22C138.781 10.7 138.935 11.3067 138.935 12.04C138.935 12.7867 138.728 13.48 138.315 14.12C137.915 14.7467 137.295 15.2533 136.455 15.64C135.615 16.0133 134.555 16.2 133.275 16.2ZM146.293 16.14C145.106 16.14 144.066 15.9067 143.173 15.44C142.293 14.96 141.606 14.3067 141.113 13.48C140.633 12.6533 140.393 11.7133 140.393 10.66C140.393 9.59333 140.626 8.65333 141.093 7.84C141.573 7.01333 142.226 6.36667 143.053 5.9C143.893 5.43333 144.846 5.2 145.913 5.2C146.953 5.2 147.879 5.42667 148.693 5.88C149.506 6.33333 150.146 6.97333 150.613 7.8C151.079 8.62667 151.313 9.6 151.313 10.72C151.313 10.8267 151.306 10.9467 151.293 11.08C151.293 11.2133 151.286 11.34 151.273 11.46H142.373V9.8H149.953L148.973 10.32C148.986 9.70667 148.859 9.16667 148.593 8.7C148.326 8.23333 147.959 7.86667 147.493 7.6C147.039 7.33333 146.513 7.2 145.913 7.2C145.299 7.2 144.759 7.33333 144.293 7.6C143.839 7.86667 143.479 8.24 143.213 8.72C142.959 9.18667 142.833 9.74 142.833 10.38V10.78C142.833 11.42 142.979 11.9867 143.273 12.48C143.566 12.9733 143.979 13.3533 144.513 13.62C145.046 13.8867 145.659 14.02 146.353 14.02C146.953 14.02 147.493 13.9267 147.973 13.74C148.453 13.5533 148.879 13.26 149.253 12.86L150.593 14.4C150.113 14.96 149.506 15.3933 148.773 15.7C148.053 15.9933 147.226 16.14 146.293 16.14ZM153.714 16V5.32H156.094V8.26L155.814 7.4C156.134 6.68 156.634 6.13333 157.314 5.76C158.008 5.38667 158.868 5.2 159.894 5.2V7.58C159.788 7.55333 159.688 7.54 159.594 7.54C159.501 7.52667 159.408 7.52 159.314 7.52C158.368 7.52 157.614 7.8 157.054 8.36C156.494 8.90667 156.214 9.72667 156.214 10.82V16H153.714ZM162.015 16V5.32H164.515V16H162.015ZM163.275 3.56C162.808 3.56 162.422 3.41333 162.115 3.12C161.822 2.82667 161.675 2.47333 161.675 2.06C161.675 1.63333 161.822 1.28 162.115 0.999999C162.422 0.706666 162.808 0.56 163.275 0.56C163.742 0.56 164.122 0.699999 164.415 0.979999C164.722 1.24667 164.875 1.58667 164.875 2C164.875 2.44 164.728 2.81333 164.435 3.12C164.142 3.41333 163.755 3.56 163.275 3.56ZM171.096 16.14C170.203 16.14 169.343 16.0267 168.516 15.8C167.703 15.56 167.056 15.2733 166.576 14.94L167.536 13.04C168.016 13.3467 168.59 13.6 169.256 13.8C169.923 14 170.59 14.1 171.256 14.1C172.043 14.1 172.61 13.9933 172.956 13.78C173.316 13.5667 173.496 13.28 173.496 12.92C173.496 12.6267 173.376 12.4067 173.136 12.26C172.896 12.1 172.583 11.98 172.196 11.9C171.81 11.82 171.376 11.7467 170.896 11.68C170.43 11.6133 169.956 11.5267 169.476 11.42C169.01 11.3 168.583 11.1333 168.196 10.92C167.81 10.6933 167.496 10.3933 167.256 10.02C167.016 9.64667 166.896 9.15333 166.896 8.54C166.896 7.86 167.09 7.27333 167.476 6.78C167.863 6.27333 168.403 5.88667 169.096 5.62C169.803 5.34 170.636 5.2 171.596 5.2C172.316 5.2 173.043 5.28 173.776 5.44C174.51 5.6 175.116 5.82667 175.596 6.12L174.636 8.02C174.13 7.71333 173.616 7.50667 173.096 7.4C172.59 7.28 172.083 7.22 171.576 7.22C170.816 7.22 170.25 7.33333 169.876 7.56C169.516 7.78667 169.336 8.07333 169.336 8.42C169.336 8.74 169.456 8.98 169.696 9.14C169.936 9.3 170.25 9.42667 170.636 9.52C171.023 9.61333 171.45 9.69333 171.916 9.76C172.396 9.81333 172.87 9.9 173.336 10.02C173.803 10.14 174.23 10.3067 174.616 10.52C175.016 10.72 175.336 11.0067 175.576 11.38C175.816 11.7533 175.936 12.24 175.936 12.84C175.936 13.5067 175.736 14.0867 175.336 14.58C174.95 15.0733 174.396 15.46 173.676 15.74C172.956 16.0067 172.096 16.14 171.096 16.14ZM170.656 20.56C170.296 20.56 169.963 20.52 169.656 20.44C169.35 20.3733 169.07 20.2733 168.816 20.14L169.276 18.96C169.49 19.0667 169.703 19.1467 169.916 19.2C170.143 19.2533 170.383 19.28 170.636 19.28C171.023 19.28 171.296 19.2133 171.456 19.08C171.616 18.9467 171.696 18.7733 171.696 18.56C171.696 18.36 171.61 18.2 171.436 18.08C171.276 17.96 171.01 17.9 170.636 17.9H170.016L170.556 15.86H171.916L171.636 16.98C172.223 17.0467 172.656 17.2333 172.936 17.54C173.23 17.86 173.376 18.2333 173.376 18.66C173.376 19.2467 173.13 19.7067 172.636 20.04C172.143 20.3867 171.483 20.56 170.656 20.56ZM182.609 16.14C181.583 16.14 180.656 15.9133 179.829 15.46C179.016 14.9933 178.376 14.3533 177.909 13.54C177.443 12.7267 177.209 11.7667 177.209 10.66C177.209 9.55333 177.443 8.59333 177.909 7.78C178.376 6.96667 179.016 6.33333 179.829 5.88C180.656 5.42667 181.583 5.2 182.609 5.2C183.503 5.2 184.303 5.4 185.009 5.8C185.716 6.18667 186.276 6.78 186.689 7.58C187.103 8.38 187.309 9.40667 187.309 10.66C187.309 11.9 187.109 12.9267 186.709 13.74C186.309 14.54 185.756 15.14 185.049 15.54C184.343 15.94 183.529 16.14 182.609 16.14ZM182.909 14C183.509 14 184.043 13.8667 184.509 13.6C184.989 13.3333 185.369 12.9467 185.649 12.44C185.943 11.9333 186.089 11.34 186.089 10.66C186.089 9.96667 185.943 9.37333 185.649 8.88C185.369 8.37333 184.989 7.98667 184.509 7.72C184.043 7.45333 183.509 7.32 182.909 7.32C182.309 7.32 181.769 7.45333 181.289 7.72C180.823 7.98667 180.443 8.37333 180.149 8.88C179.869 9.37333 179.729 9.96667 179.729 10.66C179.729 11.34 179.869 11.9333 180.149 12.44C180.443 12.9467 180.823 13.3333 181.289 13.6C181.769 13.8667 182.309 14 182.909 14ZM186.149 16V13.48L186.249 10.64L186.049 7.8V1.16H188.529V16H186.149ZM196.84 16.14C195.653 16.14 194.613 15.9067 193.72 15.44C192.84 14.96 192.153 14.3067 191.66 13.48C191.18 12.6533 190.94 11.7133 190.94 10.66C190.94 9.59333 191.173 8.65333 191.64 7.84C192.12 7.01333 192.773 6.36667 193.6 5.9C194.44 5.43333 195.393 5.2 196.46 5.2C197.5 5.2 198.426 5.42667 199.24 5.88C200.053 6.33333 200.693 6.97333 201.16 7.8C201.626 8.62667 201.86 9.6 201.86 10.72C201.86 10.8267 201.853 10.9467 201.84 11.08C201.84 11.2133 201.833 11.34 201.82 11.46H192.92V9.8H200.5L199.52 10.32C199.533 9.70667 199.406 9.16667 199.14 8.7C198.873 8.23333 198.506 7.86667 198.04 7.6C197.586 7.33333 197.06 7.2 196.46 7.2C195.846 7.2 195.306 7.33333 194.84 7.6C194.386 7.86667 194.026 8.24 193.76 8.72C193.506 9.18667 193.38 9.74 193.38 10.38V10.78C193.38 11.42 193.526 11.9867 193.82 12.48C194.113 12.9733 194.526 13.3533 195.06 13.62C195.593 13.8867 196.206 14.02 196.9 14.02C197.5 14.02 198.04 13.9267 198.52 13.74C199 13.5533 199.426 13.26 199.8 12.86L201.14 14.4C200.66 14.96 200.053 15.3933 199.32 15.7C198.6 15.9933 197.773 16.14 196.84 16.14ZM204.261 16V1.16H206.761V16H204.261ZM215.062 16.14C213.876 16.14 212.836 15.9067 211.942 15.44C211.062 14.96 210.376 14.3067 209.882 13.48C209.402 12.6533 209.162 11.7133 209.162 10.66C209.162 9.59333 209.396 8.65333 209.862 7.84C210.342 7.01333 210.996 6.36667 211.822 5.9C212.662 5.43333 213.616 5.2 214.682 5.2C215.722 5.2 216.649 5.42667 217.462 5.88C218.276 6.33333 218.916 6.97333 219.382 7.8C219.849 8.62667 220.082 9.6 220.082 10.72C220.082 10.8267 220.076 10.9467 220.062 11.08C220.062 11.2133 220.056 11.34 220.042 11.46H211.142V9.8H218.722L217.742 10.32C217.756 9.70667 217.629 9.16667 217.362 8.7C217.096 8.23333 216.729 7.86667 216.262 7.6C215.809 7.33333 215.282 7.2 214.682 7.2C214.069 7.2 213.529 7.33333 213.062 7.6C212.609 7.86667 212.249 8.24 211.982 8.72C211.729 9.18667 211.602 9.74 211.602 10.38V10.78C211.602 11.42 211.749 11.9867 212.042 12.48C212.336 12.9733 212.749 13.3533 213.282 13.62C213.816 13.8867 214.429 14.02 215.122 14.02C215.722 14.02 216.262 13.9267 216.742 13.74C217.222 13.5533 217.649 13.26 218.022 12.86L219.362 14.4C218.882 14.96 218.276 15.3933 217.542 15.7C216.822 15.9933 215.996 16.14 215.062 16.14ZM222.484 16V5.32H224.864V8.26L224.584 7.4C224.904 6.68 225.404 6.13333 226.084 5.76C226.777 5.38667 227.637 5.2 228.664 5.2V7.58C228.557 7.55333 228.457 7.54 228.364 7.54C228.27 7.52667 228.177 7.52 228.084 7.52C227.137 7.52 226.384 7.8 225.824 8.36C225.264 8.90667 224.984 9.72667 224.984 10.82V16H222.484ZM230.785 16V5.32H233.285V16H230.785ZM232.045 3.56C231.578 3.56 231.191 3.41333 230.885 3.12C230.591 2.82667 230.445 2.47333 230.445 2.06C230.445 1.63333 230.591 1.28 230.885 0.999999C231.191 0.706666 231.578 0.56 232.045 0.56C232.511 0.56 232.891 0.699999 233.185 0.979999C233.491 1.24667 233.645 1.58667 233.645 2C233.645 2.44 233.498 2.81333 233.205 3.12C232.911 3.41333 232.525 3.56 232.045 3.56Z" fill="black"/>
</svg>
